<?xml version="1.0" encoding="utf-8"?>
<svg xmlns="http://www.w3.org/2000/svg">
<symbol id="icon-1" viewBox="0 0 206 210">
    <!-- Generator: Sketch 40.3 (33839) - http://www.bohemiancoding.com/sketch -->
    <title>01</title>
    <desc>Created with Sketch.</desc>
    <defs/>
    <g id="Page-1" stroke="none" stroke-width="1" fill="none" fill-rule="evenodd">
        <g id="Artboard" transform="translate(-450.000000, -136.000000)" fill="#000000">
            <g id="celestial-bodies" transform="translate(123.000000, 136.000000)">
                <path d="M333.364,62.9996 C333.598,62.9996 333.826,62.9636 334.054,62.9326 L335.486,64.3636 L339.728,60.1216 L338.297,58.6896 C338.328,58.4616 338.364,58.2336 338.364,57.9996 C338.364,57.7656 338.328,57.5376 338.297,57.3096 L339.728,55.8776 L335.486,51.6356 L334.054,53.0666 C333.826,53.0356 333.598,52.9996 333.364,52.9996 C333.13,52.9996 332.902,53.0356 332.674,53.0666 L331.242,51.6356 L327,55.8776 L328.431,57.3096 C328.4,57.5376 328.364,57.7656 328.364,57.9996 C328.364,58.2336 328.4,58.4616 328.431,58.6896 L327,60.1216 L331.242,64.3636 L332.674,62.9326 C332.902,62.9636 333.13,62.9996 333.364,62.9996 Z M513.364,200.0252 L513.364,197.9992 L507.364,197.9992 L507.364,200.0252 C506.995,200.3042 506.669,200.6312 506.39,200.9992 L504.364,200.9992 L504.364,206.9992 L506.39,206.9992 C506.669,207.3682 506.995,207.6952 507.364,207.9742 L507.364,209.9992 L513.364,209.9992 L513.364,207.9742 C513.733,207.6952 514.059,207.3682 514.338,206.9992 L516.364,206.9992 L516.364,200.9992 L514.338,200.9992 C514.059,200.6312 513.733,200.3042 513.364,200.0252 Z M357.364,9.974 L357.364,12 L363.364,12 L363.364,9.974 C363.733,9.695 364.059,9.368 364.338,9 L366.364,9 L366.364,3 L364.338,3 C364.059,2.631 363.733,2.304 363.364,2.025 L363.364,0 L357.364,0 L357.364,2.025 C356.995,2.304 356.669,2.631 356.39,3 L354.364,3 L354.364,9 L356.39,9 C356.669,9.368 356.995,9.695 357.364,9.974 Z M530.5069,26.0708 C525.5209,19.6148 511.5409,22.0228 488.9909,33.1698 C476.1769,22.5658 460.6229,15.7478 443.7219,13.5758 C420.1459,10.5438 396.7969,16.8768 377.9809,31.4078 C344.5179,57.2478 334.5679,102.3838 351.6249,139.2278 C335.1139,158.2518 329.2619,171.1718 334.2469,177.6268 C336.0689,179.9868 339.0909,181.1648 343.2959,181.1638 C350.5919,181.1638 361.4569,177.6088 375.7739,170.5318 C391.9729,183.8848 412.1419,190.8138 432.4769,190.8138 C451.4729,190.8138 470.6099,184.7718 486.7739,172.2908 C505.5889,157.7608 517.6199,136.7738 520.6509,113.1948 C522.8229,96.2978 520.1609,79.5288 513.1449,64.4518 C529.6449,45.4378 535.4899,32.5238 530.5069,26.0708 Z M514.6999,112.4298 C511.8739,134.4188 500.6539,153.9918 483.1069,167.5418 C468.0309,179.1838 450.1879,184.8178 432.4699,184.8168 C414.3549,184.8148 396.3759,178.9168 381.6329,167.5328 C401.6169,157.0038 425.2439,141.4428 448.8659,123.2018 C472.4949,104.9558 493.5309,86.0248 508.7709,69.3488 C514.5139,82.7848 516.6119,97.5558 514.6999,112.4298 Z M338.9959,173.9598 C337.3679,171.8528 338.9639,163.4148 354.5509,145.0328 C356.6969,148.8948 359.1549,152.6448 361.9349,156.2458 C364.7159,159.8468 367.7219,163.1738 370.9159,166.2258 C349.1879,176.6578 340.6229,176.0668 338.9959,173.9598 Z M350.0539,91.2678 C352.8799,69.2788 364.0999,49.7068 381.6479,36.1568 C396.7239,24.5138 414.5659,18.8818 432.2829,18.8818 C457.1369,18.8818 481.7399,29.9728 498.0699,51.1198 C501.1009,55.0448 503.7269,59.1908 505.9809,63.4938 C490.8679,80.3428 469.4289,99.7428 445.1989,118.4528 C420.9649,137.1668 396.7709,153.0058 376.6469,163.3668 C373.0719,160.1258 369.7339,156.5278 366.6839,152.5788 C353.1339,135.0318 347.2279,113.2578 350.0539,91.2678 Z M525.7579,29.7378 C527.3849,31.8458 525.7909,40.2808 510.2099,58.6568 C508.0469,54.7788 505.5829,51.0328 502.8189,47.4528 C500.0539,43.8728 497.0529,40.5418 493.8469,37.4678 C515.5349,27.0528 524.1189,27.6138 525.7579,29.7378 Z M497.364,14.9996 C499.021,14.9996 500.364,13.6566 500.364,11.9996 C500.364,10.3426 499.021,8.9996 497.364,8.9996 C495.707,8.9996 494.364,10.3426 494.364,11.9996 C494.364,13.6566 495.707,14.9996 497.364,14.9996 Z" id="02"/>
            </g>
        </g>
    </g>

</symbol>
<symbol id="icon-2" viewBox="0 0 198 204">
    <!-- Generator: Sketch 40.3 (33839) - http://www.bohemiancoding.com/sketch -->
    <title>02</title>
    <desc>Created with Sketch.</desc>
    <defs/>
    <g id="Page-1" stroke="none" stroke-width="1" fill="none" fill-rule="evenodd">
        <g id="Artboard" transform="translate(-777.000000, -139.000000)" fill="#000000">
            <g id="celestial-bodies" transform="translate(123.000000, 136.000000)">
                <path d="M852,48 C852,36.42 842.579,27 831,27 C827.342,27 823.822,27.954 820.674,29.749 C802.26,12.481 778.323,3 753,3 C730.424,3 708.528,10.753 690.993,24.856 C688.265,22.412 684.711,21 681,21 C672.729,21 666,27.729 666,36 C666,40.222 667.732,44.125 670.74,46.927 C659.787,63.244 654,82.217 654,102 C654,156.589 698.411,201 753,201 C760.584,201 768.128,200.132 775.467,198.429 C777.906,203.589 783.111,207 789,207 C797.272,207 804,200.271 804,192 C804,190.403 803.739,188.818 803.239,187.306 C833.383,169.523 852,137.093 852,102 C852,88.855 849.468,76.115 844.474,64.091 C849.226,60.121 852,54.273 852,48 Z M800.261,182.107 L800.246,182.092 C799.933,181.737 799.6,181.404 799.258,181.082 C799.192,181.02 799.127,180.958 799.06,180.897 C798.717,180.586 798.361,180.292 797.992,180.015 C797.925,179.964 797.856,179.918 797.789,179.868 C797.433,179.611 797.068,179.367 796.692,179.141 C796.652,179.117 796.613,179.09 796.572,179.066 C796.171,178.831 795.758,178.62 795.337,178.422 C795.247,178.38 795.157,178.339 795.066,178.298 C794.643,178.11 794.213,177.938 793.774,177.789 C793.718,177.77 793.661,177.755 793.605,177.737 C793.194,177.604 792.777,177.489 792.354,177.391 C792.273,177.372 792.193,177.351 792.112,177.334 C791.66,177.237 791.202,177.163 790.74,177.109 C790.642,177.097 790.545,177.089 790.446,177.079 C789.968,177.032 789.486,177 789,177 C780.729,177 774,183.729 774,192 C774,192.203 774.005,192.408 774.014,192.612 C767.151,194.197 760.094,195 753,195 C701.72,195 660,153.28 660,102 C660,83.34 665.467,65.442 675.836,50.075 C675.863,50.085 675.891,50.091 675.917,50.101 C676.292,50.236 676.67,50.359 677.053,50.464 C677.121,50.483 677.19,50.496 677.258,50.514 C677.576,50.597 677.897,50.669 678.22,50.731 C678.343,50.754 678.468,50.775 678.592,50.795 C678.876,50.842 679.161,50.88 679.448,50.91 C679.567,50.922 679.686,50.937 679.805,50.947 C680.202,50.979 680.601,51 681,51 C689.272,51 696,44.271 696,36 C696,35.504 695.968,35.013 695.92,34.525 C695.906,34.387 695.888,34.251 695.871,34.114 C695.822,33.727 695.758,33.345 695.68,32.965 C695.657,32.856 695.64,32.746 695.615,32.638 C695.507,32.169 695.376,31.706 695.223,31.251 C695.187,31.143 695.144,31.039 695.105,30.932 C694.975,30.572 694.831,30.218 694.673,29.868 C694.64,29.794 694.616,29.716 694.581,29.642 C711.078,16.313 731.723,9 753,9 C776.462,9 798.658,17.665 815.859,33.466 C812.101,37.349 810,42.486 810,48 C810,59.58 819.421,69 831,69 C833.871,69 836.689,68.413 839.3,67.284 C843.748,78.314 846,89.975 846,102 C846,134.94 828.541,165.391 800.261,182.107 Z M753.0003,39.0001 C718.2623,39.0001 690.0003,67.2621 690.0003,102.0001 C690.0003,136.7381 718.2623,165.0001 753.0003,165.0001 C787.7383,165.0001 816.0003,136.7381 816.0003,102.0001 C816.0003,67.2621 787.7383,39.0001 753.0003,39.0001 Z M753.0003,159.0001 C721.5703,159.0001 696.0003,133.4301 696.0003,102.0001 C696.0003,70.5701 721.5703,45.0001 753.0003,45.0001 C784.4303,45.0001 810.0003,70.5701 810.0003,102.0001 C810.0003,133.4301 784.4303,159.0001 753.0003,159.0001 Z M772.2874,61.3321 L769.7134,66.7521 C775.8334,69.6591 781.1224,74.1411 785.0084,79.7121 L789.9304,76.2801 C785.4474,69.8541 779.3474,64.6861 772.2874,61.3321 Z M789,201 C784.856,201 781.268,198.187 780.275,194.159 C780.092,193.421 780,192.695 780,192 C780,187.038 784.037,183 789,183 C792.212,183 795.204,184.74 796.808,187.54 L796.813,187.549 C797.589,188.907 798,190.447 798,192 C798,196.962 793.963,201 789,201 Z M681,27 C683.905,27 686.558,28.358 688.279,30.726 C689.405,32.276 690,34.1 690,36 C690,40.962 685.963,45 681,45 C679.378,45 677.779,44.552 676.372,43.705 L676.37,43.703 C673.634,42.054 672,39.174 672,36 C672,31.038 676.037,27 681,27 Z M822.088,35.959 C824.698,34.023 827.78,33 831,33 C839.272,33 846,39.729 846,48 C846,53.091 843.44,57.794 839.151,60.58 C836.712,62.163 833.894,63 831,63 C822.729,63 816,56.271 816,48 C816,43.217 818.219,38.829 822.088,35.959 Z M789.0003,87.0001 C789.0003,88.6571 790.3433,90.0001 792.0003,90.0001 C793.6573,90.0001 795.0003,88.6571 795.0003,87.0001 C795.0003,85.3431 793.6573,84.0001 792.0003,84.0001 C790.3433,84.0001 789.0003,85.3431 789.0003,87.0001 Z" id="03"/>
            </g>
        </g>
    </g>

</symbol>
<symbol id="icon-3" viewBox="0 0 205 204">
    <!-- Generator: Sketch 40.3 (33839) - http://www.bohemiancoding.com/sketch -->
    <title>03</title>
    <desc>Created with Sketch.</desc>
    <defs/>
    <g id="Page-1" stroke="none" stroke-width="1" fill="none" fill-rule="evenodd">
        <g id="Artboard" transform="translate(-450.000000, -449.000000)" fill="#000000">
            <g id="celestial-bodies" transform="translate(123.000000, 136.000000)">
                <path d="M505.198484,394.311676 C501.063484,396.095676 496.670484,396.999676 492.142484,396.999676 C473.946484,396.999676 459.142484,382.196676 459.142484,363.999676 C459.142484,359.115676 460.190484,354.405676 462.257484,350.002676 C467.674484,338.458676 479.405484,330.999676 492.142484,330.999676 C510.339484,330.999676 525.142484,345.803676 525.142484,363.999676 C525.142484,377.187676 517.314484,389.085676 505.198484,394.311676 Z M378.142584,425.000176 L480.142584,425.000176 L480.142584,419.000176 L378.142584,419.000176 L378.142584,425.000176 Z M491.553484,478.999676 L390.142484,478.999676 L390.142484,484.999676 L486.390484,484.999676 C471.251484,500.992676 449.850484,510.999676 426.142484,510.999676 C389.828484,510.999676 358.907484,487.546676 347.675484,454.999676 L420.142484,454.999676 L420.142484,448.999676 L345.840484,448.999676 C344.084484,442.289676 343.142484,435.253676 343.142484,427.999676 C343.142484,426.993676 343.183484,425.997676 343.218484,424.999676 L366.142484,424.999676 L366.142484,418.999676 L343.639484,418.999676 C344.433484,411.671676 346.195484,404.633676 348.776484,397.999676 L426.142484,397.999676 L426.142484,391.999676 L351.364484,391.999676 C355.162484,384.142676 360.179484,376.986676 366.142484,370.740676 L366.142484,370.999676 L414.142484,370.999676 L414.142484,364.999676 L372.196484,364.999676 C386.717484,352.548676 405.559484,344.999676 426.142484,344.999676 C436.309484,344.999676 446.201484,346.807676 455.594484,350.377676 C455.514484,350.589676 455.446484,350.804676 455.370484,351.018676 C455.291484,351.239676 455.212484,351.461676 455.138484,351.683676 C454.986484,352.136676 454.846484,352.592676 454.712484,353.050676 C454.662484,353.219676 454.607484,353.388676 454.560484,353.558676 C454.386484,354.182676 454.227484,354.810676 454.085484,355.442676 C454.053484,355.586676 454.028484,355.731676 453.997484,355.874676 C453.892484,356.369676 453.794484,356.866676 453.709484,357.365676 C453.671484,357.588676 453.638484,357.812676 453.603484,358.036676 C453.537484,358.467676 453.477484,358.900676 453.426484,359.334676 C453.398484,359.568676 453.371484,359.803676 453.347484,360.038676 C453.302484,360.488676 453.267484,360.941676 453.237484,361.394676 C453.223484,361.603676 453.206484,361.810676 453.196484,362.019676 C453.163484,362.677676 453.142484,363.336676 453.142484,363.999676 C453.142484,385.504676 470.637484,402.999676 492.142484,402.999676 C492.754484,402.999676 493.362484,402.982676 493.970484,402.954676 C494.160484,402.945676 494.349484,402.931676 494.539484,402.919676 C494.963484,402.894676 495.386484,402.863676 495.807484,402.823676 C496.018484,402.804676 496.228484,402.782676 496.438484,402.759676 C496.857484,402.713676 497.275484,402.660676 497.692484,402.600676 C497.880484,402.573676 498.069484,402.549676 498.257484,402.519676 C498.841484,402.427676 499.422484,402.325676 500.001484,402.207676 C500.012484,402.204676 500.023484,402.203676 500.034484,402.200676 C500.623484,402.079676 501.208484,401.940676 501.791484,401.791676 C501.973484,401.745676 502.153484,401.693676 502.335484,401.644676 C502.741484,401.533676 503.147484,401.418676 503.550484,401.294676 C503.753484,401.232676 503.955484,401.168676 504.156484,401.103676 C504.309484,401.053676 504.463484,401.009676 504.615484,400.958676 C507.620484,409.663676 509.142484,418.746676 509.142484,427.999676 C509.142484,447.217676 502.559484,464.916676 491.553484,478.999676 L491.553484,478.999676 Z M531.142484,363.999676 C531.142484,342.495676 513.647484,324.999676 492.142484,324.999676 C478.033484,324.999676 464.969484,332.743676 458.116484,344.945676 C447.923484,341.015676 437.186484,338.999676 426.142484,338.999676 C377.068484,338.999676 337.142484,378.925676 337.142484,427.999676 C337.142484,477.074676 377.068484,516.999676 426.142484,516.999676 C475.217484,516.999676 515.142484,477.074676 515.142484,427.999676 C515.142484,417.934676 513.443484,408.063676 510.127484,398.606676 C522.981484,391.927676 531.142484,378.637676 531.142484,363.999676 Z M345.925884,323.678276 C346.240884,321.161276 345.555884,318.671276 343.997884,316.668276 C342.440884,314.665276 340.195884,313.389276 337.677884,313.074276 C332.478884,312.423276 327.722884,316.124276 327.073884,321.322276 C326.424884,326.519276 330.123884,331.276276 335.321884,331.926276 C335.719884,331.976276 336.114884,332.000276 336.506884,332.000276 C341.222884,332.000276 345.325884,328.477276 345.925884,323.678276 Z M339.971884,322.934276 C339.732884,324.849276 337.988884,326.213276 336.065884,325.972276 C334.150884,325.733276 332.787884,323.980276 333.027884,322.066276 C333.142884,321.139276 333.613884,320.311276 334.350884,319.738276 C335.088884,319.164276 336.004884,318.912276 336.933884,319.028276 C337.861884,319.143276 338.687884,319.614276 339.261884,320.351276 C339.835884,321.089276 340.087884,322.006276 339.971884,322.934276 Z M364.021184,340.363976 L365.452184,338.932976 C365.680184,338.963976 365.908184,338.999976 366.143184,338.999976 C366.377184,338.999976 366.605184,338.963976 366.833184,338.932976 L368.264184,340.363976 L372.506184,336.121976 L371.075184,334.690976 C371.107184,334.461976 371.143184,334.234976 371.143184,333.999976 C371.143184,333.765976 371.107184,333.537976 371.075184,333.309976 L372.506184,331.878976 L368.264184,327.635976 L366.833184,329.067976 C366.605184,329.035976 366.377184,328.999976 366.143184,328.999976 C365.908184,328.999976 365.680184,329.035976 365.452184,329.067976 L364.021184,327.635976 L359.779184,331.878976 L361.210184,333.309976 C361.178184,333.537976 361.143184,333.765976 361.143184,333.999976 C361.143184,334.234976 361.178184,334.461976 361.210184,334.690976 L359.779184,336.121976 L364.021184,340.363976 Z" id="05"/>
            </g>
        </g>
    </g>

</symbol>
<symbol id="icon-4" viewBox="0 0 210 210">
    <!-- Generator: Sketch 40.3 (33839) - http://www.bohemiancoding.com/sketch -->
    <title>04</title>
    <desc>Created with Sketch.</desc>
    <defs/>
    <g id="Page-1" stroke="none" stroke-width="1" fill="none" fill-rule="evenodd">
        <g id="Artboard" transform="translate(-771.000000, -446.000000)" fill="#000000">
            <g id="celestial-bodies" transform="translate(123.000000, 136.000000)">
                <path d="M754.4919,400.0756 C761.8119,400.8216 767.4919,407.0186 767.9959,415.0826 C767.9509,423.3156 761.2429,429.9996 752.9999,429.9996 C752.4959,429.9996 751.9989,429.9736 751.5079,429.9246 C744.1879,429.1786 738.5079,422.9816 738.0039,414.9166 C738.0499,406.6846 744.7569,399.9996 752.9999,399.9996 C753.5039,399.9996 754.0009,400.0266 754.4919,400.0756 M751.8999,388.2086 C738.3929,393.5306 731.6089,405.8906 732.0029,414.9366 C732.0029,414.9576 731.9999,414.9786 731.9999,414.9996 C731.9999,415.0286 732.0039,415.0556 732.0039,415.0836 C732.0059,415.1126 732.0029,415.1436 732.0049,415.1726 C732.0059,415.1976 732.0109,415.2216 732.0129,415.2466 C732.1299,425.2996 739.3369,433.6756 748.8629,435.5866 C749.1369,435.6416 749.4199,435.6696 749.6969,435.7136 C750.0929,435.7766 750.4849,435.8526 750.8879,435.8926 C751.3979,435.9446 751.9179,435.9586 752.4379,435.9726 C752.2559,436.0486 752.0859,436.1356 751.8999,436.2086 C743.9849,439.3276 734.1149,440.4956 723.7639,440.4946 C693.1289,440.4936 658.3229,430.2636 657.8569,430.1246 L656.1429,435.8746 C656.3029,435.9226 672.3949,440.6886 692.2789,443.7936 C703.9109,445.6106 714.3939,446.5186 723.6849,446.5186 C735.9309,446.5176 746.1059,444.9406 754.0999,441.7906 C767.6069,436.4696 774.3909,424.1096 773.9969,415.0636 C773.9969,415.0416 773.9999,415.0216 773.9999,414.9996 C773.9999,414.9716 773.9959,414.9446 773.9959,414.9156 C773.9939,414.8876 773.9969,414.8566 773.9949,414.8276 C773.9939,414.8026 773.9889,414.7786 773.9879,414.7536 C773.8699,404.7006 766.6629,396.3246 757.1369,394.4136 C756.8629,394.3586 756.5799,394.3306 756.3029,394.2856 C755.9069,394.2226 755.5149,394.1476 755.1119,394.1066 C754.6019,394.0556 754.0819,394.0416 753.5619,394.0276 C753.7449,393.9516 753.9139,393.8646 754.0999,393.7906 C785.4409,381.4446 847.5199,399.6896 848.1429,399.8746 L849.8569,394.1246 C849.6969,394.0776 833.6049,389.3116 813.7209,386.2056 C786.7569,381.9956 765.9579,382.6686 751.8999,388.2086 Z M753,352 C760.906,352 768.614,353.445 775.91,356.294 L778.093,350.706 C770.098,347.583 761.656,346 753,346 C714.953,346 684,376.953 684,415 L690,415 C690,380.262 718.262,352 753,352 Z M753,478 C745.094,478 737.386,476.555 730.09,473.706 L727.907,479.294 C735.902,482.417 744.344,484 753,484 C791.047,484 822,453.047 822,415 L816,415 C816,449.738 787.738,478 753,478 Z M753,376 L753,370 C728.187,370 708,390.187 708,415 C708,419.376 708.627,423.703 709.865,427.859 L715.616,426.147 C714.543,422.546 714,418.796 714,415 C714,393.495 731.495,376 753,376 Z M753,454 L753,460 C777.813,460 798,439.813 798,415 C798,410.624 797.373,406.297 796.135,402.141 L790.384,403.853 C791.457,407.454 792,411.204 792,415 C792,436.505 774.505,454 753,454 Z M786,361 C787.657,361 789,359.657 789,358 C789,356.343 787.657,355 786,355 C784.343,355 783,356.343 783,358 C783,359.657 784.343,361 786,361 Z M720,469 C718.343,469 717,470.343 717,472 C717,473.657 718.343,475 720,475 C721.657,475 723,473.657 723,472 C723,470.343 721.657,469 720,469 Z M843,310 C834.729,310 828,316.729 828,325 C828,333.271 834.729,340 843,340 C851.271,340 858,333.271 858,325 C858,316.729 851.271,310 843,310 Z M843,334 C838.038,334 834,329.962 834,325 C834,320.038 838.038,316 843,316 C847.962,316 852,320.038 852,325 C852,329.962 847.962,334 843,334 Z M818.3218,363.9259 C818.7218,363.9759 819.1218,364.0009 819.5188,364.0009 C821.6188,364.0009 823.6478,363.3079 825.3318,361.9979 C827.3348,360.4409 828.6108,358.1959 828.9258,355.6779 C829.2408,353.1609 828.5558,350.6709 826.9978,348.6679 C825.4408,346.6649 823.1958,345.3889 820.6778,345.0739 C818.1578,344.7589 815.6708,345.4439 813.6678,347.0019 C811.6648,348.5599 810.3888,350.8039 810.0738,353.3219 C809.7588,355.8389 810.4438,358.3289 812.0018,360.3319 C813.5598,362.3349 815.8038,363.6109 818.3218,363.9259 Z M816.0278,354.0659 C816.1438,353.1389 816.6138,352.3119 817.3518,351.7379 C817.9718,351.2549 818.7188,350.9999 819.4928,350.9999 C819.6388,350.9999 819.7868,351.0089 819.9338,351.0279 C820.8608,351.1439 821.6888,351.6139 822.2618,352.3519 C822.8358,353.0899 823.0888,354.0069 822.9718,354.9339 C822.8568,355.8609 822.3858,356.6889 821.6488,357.2619 C820.9108,357.8359 819.9958,358.0899 819.0658,357.9719 C818.1388,357.8569 817.3118,357.3859 816.7378,356.6489 C816.1638,355.9099 815.9118,354.9929 816.0278,354.0659 Z M663,490 C654.729,490 648,496.729 648,505 C648,513.271 654.729,520 663,520 C671.271,520 678,513.271 678,505 C678,496.729 671.271,490 663,490 Z M663,514 C658.038,514 654,509.962 654,505 C654,500.038 658.038,496 663,496 C667.962,496 672,500.038 672,505 C672,509.962 667.962,514 663,514 Z M687.6782,466.0741 C685.1602,465.7611 682.6702,466.4441 680.6682,468.0021 C678.6652,469.5591 677.3892,471.8041 677.0742,474.3221 C676.7592,476.8391 677.4442,479.3291 679.0022,481.3321 C680.5592,483.3351 682.8042,484.6111 685.3222,484.9261 C685.7222,484.9761 686.1222,485.0011 686.5192,485.0011 C688.6192,485.0011 690.6472,484.3081 692.3322,482.9981 C694.3352,481.4401 695.6112,479.1961 695.9262,476.6781 C696.2412,474.1611 695.5562,471.6711 693.9982,469.6681 C692.4402,467.6651 690.1962,466.3891 687.6782,466.0741 Z M689.9722,475.9341 C689.8562,476.8611 689.3862,477.6881 688.6482,478.2621 C687.9102,478.8361 686.9942,479.0891 686.0662,478.9721 C685.1392,478.8561 684.3112,478.3861 683.7382,477.6481 C683.1642,476.9101 682.9112,475.9931 683.0282,475.0661 C683.1432,474.1391 683.6142,473.3111 684.3512,472.7381 C684.9722,472.2551 685.7192,472.0001 686.4932,472.0001 C686.6392,472.0001 686.7862,472.0091 686.9342,472.0281 C687.8612,472.1431 688.6882,472.6141 689.2622,473.3511 C689.8362,474.0901 690.0882,475.0071 689.9722,475.9341 Z" id="06"/>
            </g>
        </g>
    </g>

</symbol>
<symbol id="icon-5" viewBox="0 0 206 207">
    <!-- Generator: Sketch 40.3 (33839) - http://www.bohemiancoding.com/sketch -->
    <title>05</title>
    <desc>Created with Sketch.</desc>
    <defs/>
    <g id="Page-1" stroke="none" stroke-width="1" fill="none" fill-rule="evenodd">
        <g id="Artboard" transform="translate(-449.000000, -760.000000)" fill="#000000">
            <g id="celestial-bodies" transform="translate(123.000000, 136.000000)">
                <path d="M482.609528,791.331648 C483.458528,790.691648 484.293528,790.032648 485.118528,789.360648 C485.268528,789.238648 485.414528,789.110648 485.563528,788.987648 C486.406528,788.291648 487.235528,787.576648 488.051528,786.847648 C488.299528,786.626648 488.546528,786.406648 488.790528,786.182648 C489.728528,785.324648 490.655528,784.453648 491.554528,783.554648 C492.448528,782.659648 493.315528,781.738648 494.169528,780.805648 C494.402528,780.550648 494.632528,780.292648 494.862528,780.034648 C495.579528,779.231648 496.281528,778.416648 496.967528,777.587648 C497.098528,777.428648 497.235528,777.273648 497.365528,777.112648 C498.035528,776.289648 498.693528,775.456648 499.331528,774.609648 C503.671528,784.216648 504.692528,791.315648 502.004528,794.003648 C499.316528,796.691648 492.217528,795.670648 482.609528,791.331648 Z M393.509528,791.823648 C393.750528,791.685648 393.995528,791.540648 394.238528,791.399648 C394.806528,791.070648 395.376528,790.736648 395.952528,790.392648 C396.244528,790.218648 396.537528,790.040648 396.831528,789.862648 C397.374528,789.533648 397.921528,789.198648 398.472528,788.855648 C398.773528,788.668648 399.075528,788.481648 399.378528,788.290648 C399.953528,787.928648 400.533528,787.558648 401.115528,787.183648 C401.390528,787.006648 401.663528,786.831648 401.939528,786.652648 C402.657528,786.184648 403.380528,785.705648 404.108528,785.218648 C404.249528,785.123648 404.389528,785.032648 404.531528,784.937648 C405.408528,784.347648 406.292528,783.742648 407.181528,783.125648 C407.395528,782.977648 407.611528,782.823648 407.826528,782.673648 C408.497528,782.204648 409.170528,781.730648 409.847528,781.246648 C410.156528,781.026648 410.467528,780.801648 410.777528,780.577648 C411.372528,780.149648 411.968528,779.716648 412.567528,779.277648 C412.899528,779.033648 413.231528,778.788648 413.564528,778.541648 C414.161528,778.099648 414.760528,777.651648 415.360528,777.199648 C415.682528,776.956648 416.004528,776.715648 416.327528,776.469648 C416.993528,775.963648 417.662528,775.448648 418.332528,774.930648 C418.584528,774.735648 418.836528,774.543648 419.089528,774.345648 C420.019528,773.621648 420.952528,772.887648 421.887528,772.140648 C421.976528,772.070648 422.064528,771.997648 422.153528,771.927648 C422.992528,771.256648 423.834528,770.576648 424.677528,769.887648 C424.973528,769.646648 425.270528,769.400648 425.566528,769.156648 C426.213528,768.625648 426.860528,768.090648 427.508528,767.549648 C427.839528,767.272648 428.171528,766.993648 428.503528,766.714648 C429.127528,766.189648 429.751528,765.660648 430.376528,765.126648 C430.708528,764.843648 431.039528,764.560648 431.371528,764.275648 C431.581528,764.094648 431.790528,763.917648 432.000528,763.736648 C432.210528,763.917648 432.420528,764.094648 432.629528,764.275648 C432.961528,764.560648 433.293528,764.843648 433.624528,765.126648 C434.249528,765.660648 434.873528,766.189648 435.497528,766.714648 C435.829528,766.993648 436.161528,767.272648 436.492528,767.549648 C437.140528,768.090648 437.788528,768.625648 438.434528,769.156648 C438.731528,769.400648 439.027528,769.646648 439.323528,769.887648 C440.160528,770.570648 440.995528,771.245648 441.828528,771.911648 C441.924528,771.987648 442.020528,772.066648 442.115528,772.143648 C443.051528,772.888648 443.982528,773.622648 444.911528,774.345648 C445.164528,774.543648 445.416528,774.735648 445.669528,774.930648 C446.338528,775.448648 447.007528,775.963648 447.673528,776.469648 C447.996528,776.715648 448.318528,776.956648 448.640528,777.199648 C449.241528,777.651648 449.839528,778.099648 450.436528,778.541648 C450.769528,778.788648 451.102528,779.033648 451.433528,779.277648 C452.032528,779.716648 452.628528,780.149648 453.223528,780.577648 C453.533528,780.801648 453.844528,781.026648 454.153528,781.246648 C454.830528,781.730648 455.504528,782.204648 456.175528,782.673648 C456.389528,782.823648 456.605528,782.977648 456.819528,783.125648 C457.709528,783.742648 458.592528,784.347648 459.469528,784.937648 C459.612528,785.033648 459.753528,785.124648 459.896528,785.220648 C460.621528,785.706648 461.343528,786.184648 462.059528,786.650648 C462.337528,786.831648 462.612528,787.006648 462.888528,787.184648 C463.469528,787.559648 464.048528,787.929648 464.623528,788.290648 C464.926528,788.481648 465.227528,788.668648 465.528528,788.855648 C466.079528,789.198648 466.626528,789.533648 467.170528,789.862648 C467.463528,790.040648 467.757528,790.218648 468.048528,790.392648 C468.624528,790.736648 469.194528,791.070648 469.762528,791.399648 C470.005528,791.540648 470.250528,791.685648 470.492528,791.823648 C470.577528,791.872648 470.665528,791.925648 470.751528,791.974648 C446.724528,805.724648 417.276528,805.724648 393.249528,791.974648 C393.335528,791.925648 393.423528,791.872648 393.509528,791.823648 Z M364.669528,774.609648 C365.307528,775.456648 365.965528,776.289648 366.635528,777.113648 C366.766528,777.274648 366.903528,777.430648 367.035528,777.589648 C367.719528,778.417648 368.420528,779.230648 369.135528,780.031648 C369.368528,780.292648 369.600528,780.552648 369.836528,780.810648 C370.668528,781.719648 371.513528,782.616648 372.383528,783.487648 C372.404528,783.509648 372.424528,783.532648 372.445528,783.553648 C372.466528,783.574648 372.488528,783.593648 372.509528,783.614648 C373.381528,784.485648 374.278528,785.329648 375.187528,786.161648 C375.447528,786.398648 375.708528,786.633648 375.971528,786.867648 C376.768528,787.578648 377.577528,788.275648 378.400528,788.956648 C378.565528,789.092648 378.725528,789.232648 378.891528,789.367648 C379.713528,790.037648 380.545528,790.693648 381.391528,791.331648 C371.782528,795.670648 364.684528,796.690648 361.996528,794.003648 C359.309528,791.315648 360.329528,784.216648 364.669528,774.609648 Z M364.702528,686.409648 C364.999528,686.921648 365.299528,687.433648 365.608528,687.952648 C365.814528,688.296648 366.025528,688.643648 366.236528,688.990648 C366.537528,689.486648 366.840528,689.982648 367.152528,690.483648 C367.376528,690.845648 367.604528,691.208648 367.834528,691.573648 C368.147528,692.069648 368.466528,692.568648 368.789528,693.069648 C369.028528,693.440648 369.268528,693.812648 369.512528,694.186648 C369.846528,694.696648 370.187528,695.211648 370.530528,695.726648 C370.774528,696.092648 371.016528,696.457648 371.265528,696.825648 C371.637528,697.377648 372.019528,697.933648 372.402528,698.490648 C372.635528,698.827648 372.862528,699.162648 373.098528,699.501648 C373.580528,700.193648 374.073528,700.889648 374.571528,701.588648 C374.719528,701.796648 374.862528,702.002648 375.011528,702.211648 C375.655528,703.110648 376.313528,704.014648 376.982528,704.923648 C377.208528,705.230648 377.441528,705.539648 377.670528,705.847648 C378.126528,706.461648 378.583528,707.075648 379.050528,707.693648 C379.334528,708.069648 379.624528,708.446648 379.911528,708.823648 C380.336528,709.379648 380.763528,709.936648 381.196528,710.496648 C381.503528,710.892648 381.815528,711.289648 382.126528,711.687648 C382.555528,712.235648 382.986528,712.783648 383.423528,713.333648 C383.741528,713.734648 384.062528,714.136648 384.384528,714.538648 C384.827528,715.090648 385.275528,715.643648 385.725528,716.197648 C386.049528,716.596648 386.373528,716.995648 386.702528,717.394648 C387.170528,717.965648 387.645528,718.537648 388.121528,719.110648 C388.439528,719.491648 388.755528,719.872648 389.076528,720.254648 C389.605528,720.884648 390.141528,721.515648 390.679528,722.146648 C390.954528,722.469648 391.225528,722.791648 391.503528,723.114648 C392.322528,724.068648 393.149528,725.023648 393.987528,725.978648 L396.242528,724.000648 L393.987528,725.979648 C399.467528,732.223648 405.335528,738.478648 411.429528,744.571648 C416.685528,749.828648 422.062528,754.917648 427.450528,759.734648 C426.880528,760.225648 426.490528,760.554648 426.100528,760.886648 C425.550528,761.354648 424.999528,761.823648 424.450528,762.285648 C424.035528,762.634648 423.621528,762.976648 423.207528,763.321648 C422.682528,763.758648 422.156528,764.195648 421.632528,764.625648 C421.211528,764.971648 420.791528,765.313648 420.370528,765.654648 C419.855528,766.074648 419.339528,766.491648 418.825528,766.904648 C418.406528,767.240648 417.988528,767.574648 417.570528,767.905648 C417.054528,768.315648 416.540528,768.720648 416.026528,769.123648 C415.614528,769.445648 415.203528,769.767648 414.792528,770.085648 C414.271528,770.489648 413.753528,770.886648 413.234528,771.282648 C412.837528,771.586648 412.438528,771.891648 412.042528,772.191648 C411.506528,772.595648 410.973528,772.992648 410.441528,773.389648 C410.067528,773.667648 409.692528,773.948648 409.319528,774.223648 C408.743528,774.646648 408.172528,775.060648 407.600528,775.473648 C407.276528,775.708648 406.949528,775.947648 406.626528,776.179648 C405.863528,776.725648 405.105528,777.259648 404.351528,777.786648 C404.224528,777.875648 404.095528,777.968648 403.968528,778.056648 C403.094528,778.664648 402.227528,779.257648 401.366528,779.837648 C401.071528,780.036648 400.780528,780.226648 400.487528,780.422648 C399.918528,780.802648 399.348528,781.181648 398.786528,781.548648 C398.442528,781.772648 398.103528,781.988648 397.762528,782.207648 C397.257528,782.532648 396.752528,782.857648 396.253528,783.171648 C395.894528,783.397648 395.539528,783.616648 395.183528,783.837648 C394.707528,784.131648 394.233528,784.423648 393.763528,784.708648 C393.402528,784.927648 393.044528,785.141648 392.686528,785.353648 C392.231528,785.624648 391.778528,785.891648 391.328528,786.152648 C390.969528,786.361648 390.612528,786.566648 390.257528,786.768648 C389.816528,787.019648 389.378528,787.264648 388.943528,787.505648 C388.592528,787.700648 388.241528,787.894648 387.894528,788.082648 C387.755528,788.157648 387.619528,788.228648 387.480528,788.302648 C387.140528,788.066648 386.799528,787.833648 386.462528,787.591648 C386.042528,787.290648 385.622528,786.988648 385.208528,786.678648 C384.599528,786.222648 384.001528,785.752648 383.404528,785.278648 C383.019528,784.972648 382.631528,784.670648 382.251528,784.357648 C381.609528,783.826648 380.982528,783.278648 380.357528,782.727648 C380.041528,782.450648 379.719528,782.180648 379.408528,781.898648 C378.483528,781.056648 377.573528,780.196648 376.689528,779.311648 C372.951528,775.573648 369.586528,771.457648 366.690528,767.078648 C350.328528,742.328648 349.440528,710.739648 364.026528,685.248648 C364.336528,685.786648 364.521528,686.099648 364.702528,686.409648 Z M366.688528,652.516648 C370.275528,652.516648 375.334528,653.933648 381.391528,656.669648 C380.543528,657.308648 379.708528,657.966648 378.883528,658.638648 C378.732528,658.761648 378.586528,658.890648 378.435528,659.014648 C377.593528,659.710648 376.765528,660.423648 375.949528,661.152648 C375.702528,661.373648 375.454528,661.594648 375.209528,661.818648 C374.271528,662.676648 373.345528,663.546648 372.446528,664.445648 C371.552528,665.340648 370.686528,666.261648 369.832528,667.194648 C369.599528,667.449648 369.368528,667.707648 369.137528,667.965648 C368.421528,668.768648 367.720528,669.582648 367.035528,670.410648 C366.903528,670.570648 366.766528,670.726648 366.634528,670.888648 C365.964528,671.711648 365.307528,672.543648 364.669528,673.390648 C360.329528,663.783648 359.309528,656.684648 361.996528,653.996648 C362.989528,653.003648 364.585528,652.516648 366.688528,652.516648 Z M437.924528,646.003648 C451.207528,646.998648 463.947528,651.331648 475.077528,658.690648 C479.457528,661.585648 483.573528,664.949648 487.312528,668.689648 C490.634528,672.011648 493.639528,675.644648 496.304528,679.481648 C490.340528,690.607648 481.201528,703.546648 469.697528,717.149648 C467.443528,715.794648 464.816528,715.000648 462.000528,715.000648 C453.729528,715.000648 447.000528,721.729648 447.000528,730.000648 C447.000528,733.198648 448.037528,736.262648 449.859528,738.784648 C449.350528,739.299648 448.844528,739.814648 448.329528,740.329648 C442.972528,745.687648 437.488528,750.849648 432.000528,755.736648 C426.512528,750.849648 421.028528,745.687648 415.671528,740.329648 C409.670528,734.327648 403.892528,728.168648 398.497528,722.021648 C397.650528,721.056648 396.814528,720.091648 395.987528,719.128648 C395.670528,718.758648 395.360528,718.389648 395.046528,718.020648 C394.540528,717.424648 394.031528,716.829648 393.533528,716.235648 C393.177528,715.811648 392.830528,715.388648 392.478528,714.965648 C392.033528,714.428648 391.585528,713.892648 391.147528,713.357648 C390.780528,712.909648 390.422528,712.464648 390.061528,712.018648 C389.647528,711.508648 389.231528,710.997648 388.824528,710.489648 C388.462528,710.035648 388.107528,709.584648 387.750528,709.132648 C387.356528,708.635648 386.961528,708.137648 386.574528,707.641648 C386.217528,707.184648 385.868528,706.730648 385.517528,706.275648 C385.141528,705.788648 384.764528,705.300648 384.395528,704.815648 C384.049528,704.360648 383.710528,703.907648 383.369528,703.454648 C383.008528,702.974648 382.647528,702.493648 382.293528,702.016648 C381.957528,701.562648 381.628528,701.111648 381.298528,700.660648 C380.953528,700.188648 380.608528,699.716648 380.270528,699.248648 C379.946528,698.798648 379.629528,698.351648 379.311528,697.904648 C378.981528,697.439648 378.651528,696.974648 378.327528,696.511648 C378.018528,696.069648 377.714528,695.629648 377.412528,695.190648 C377.094528,694.730648 376.779528,694.271648 376.469528,693.814648 C376.174528,693.378648 375.884528,692.946648 375.596528,692.514648 C375.293528,692.060648 374.994528,691.608648 374.699528,691.158648 C374.419528,690.732648 374.144528,690.308648 373.872528,689.886648 C373.582528,689.436648 373.296528,688.989648 373.015528,688.544648 C372.754528,688.130648 372.495528,687.719648 372.241528,687.309648 C371.965528,686.864648 371.693528,686.421648 371.426528,685.981648 C371.181528,685.579648 370.940528,685.179648 370.703528,684.781648 C370.441528,684.342648 370.185528,683.906648 369.932528,683.472648 C369.706528,683.083648 369.481528,682.695648 369.262528,682.310648 C369.015528,681.876648 368.775528,681.447648 368.538528,681.019648 C368.329528,680.644648 368.121528,680.269648 367.920528,679.898648 C367.844528,679.757648 367.773528,679.620648 367.698528,679.480648 C367.941528,679.130648 368.181528,678.778648 368.429528,678.432648 C368.720528,678.027648 369.011528,677.622648 369.310528,677.223648 C369.775528,676.601648 370.256528,675.989648 370.740528,675.381648 C371.038528,675.006648 371.332528,674.628648 371.637528,674.259648 C372.176528,673.606648 372.733528,672.968648 373.293528,672.332648 C373.563528,672.026648 373.824528,671.714648 374.098528,671.412648 C374.941528,670.485648 375.802528,669.574648 376.689528,668.688648 C380.430528,664.947648 384.546528,661.583648 388.923528,658.690648 C392.633528,656.237648 396.576528,654.119648 400.657528,652.335648 C403.681528,659.194648 410.536528,664.000648 418.500528,664.000648 C428.745528,664.000648 437.152528,656.053648 437.924528,646.003648 Z M432.000528,644.500648 C432.000528,651.943648 425.944528,658.000648 418.500528,658.000648 C411.056528,658.000648 405.000528,651.943648 405.000528,644.500648 C405.000528,637.056648 411.056528,631.000648 418.500528,631.000648 C425.944528,631.000648 432.000528,637.056648 432.000528,644.500648 Z M499.331528,673.390648 C496.956528,670.239648 494.353528,667.244648 491.554528,664.446648 C488.756528,661.648648 485.761528,659.044648 482.609528,656.669648 C492.217528,652.329648 499.315528,651.308648 502.004528,653.996648 C504.692528,656.684648 503.671528,663.783648 499.331528,673.390648 Z M462.000528,739.000648 C460.417528,739.000648 458.861528,738.584648 457.502528,737.797648 C454.725528,736.190648 453.000528,733.203648 453.000528,730.000648 C453.000528,725.037648 457.037528,721.000648 462.000528,721.000648 C466.963528,721.000648 471.000528,725.037648 471.000528,730.000648 C471.000528,734.962648 466.963528,739.000648 462.000528,739.000648 Z M487.312528,779.311648 C486.425528,780.198648 485.514528,781.059648 484.587528,781.902648 C484.283528,782.178648 483.969528,782.441648 483.661528,782.712648 C483.028528,783.269648 482.393528,783.824648 481.744528,784.361648 C481.368528,784.671648 480.983528,784.970648 480.601528,785.273648 C480.002528,785.750648 479.400528,786.222648 478.789528,786.681648 C478.376528,786.990648 477.958528,787.290648 477.539528,787.590648 C477.202528,787.832648 476.860528,788.066648 476.520528,788.302648 C476.381528,788.228648 476.245528,788.157648 476.106528,788.082648 C475.759528,787.894648 475.408528,787.700648 475.057528,787.505648 C474.622528,787.264648 474.185528,787.019648 473.744528,786.768648 C473.388528,786.566648 473.031528,786.361648 472.672528,786.152648 C472.222528,785.891648 471.769528,785.624648 471.314528,785.353648 C470.956528,785.141648 470.598528,784.927648 470.237528,784.708648 C469.766528,784.423648 469.291528,784.130648 468.814528,783.835648 C468.460528,783.615648 468.107528,783.397648 467.750528,783.172648 C467.249528,782.857648 466.743528,782.532648 466.236528,782.206648 C465.896528,781.987648 465.557528,781.772648 465.215528,781.548648 C464.652528,781.181648 464.083528,780.802648 463.514528,780.422648 C463.220528,780.226648 462.930528,780.036648 462.635528,779.837648 C461.773528,779.257648 460.906528,778.664648 460.032528,778.056648 C459.905528,777.968648 459.776528,777.875648 459.649528,777.786648 C458.895528,777.259648 458.137528,776.725648 457.374528,776.179648 C457.051528,775.947648 456.724528,775.708648 456.400528,775.473648 C455.828528,775.060648 455.257528,774.646648 454.681528,774.223648 C454.309528,773.948648 453.933528,773.667648 453.559528,773.389648 C453.027528,772.992648 452.494528,772.595648 451.958528,772.191648 C451.562528,771.891648 451.164528,771.586648 450.766528,771.282648 C450.248528,770.886648 449.729528,770.489648 449.208528,770.085648 C448.798528,769.767648 448.387528,769.446648 447.975528,769.124648 C447.460528,768.720648 446.944528,768.313648 446.427528,767.902648 C446.011528,767.572648 445.595528,767.241648 445.179528,766.907648 C444.663528,766.492648 444.146528,766.074648 443.628528,765.653648 C443.208528,765.312648 442.789528,764.971648 442.368528,764.625648 C441.844528,764.195648 441.319528,763.758648 440.793528,763.321648 C440.379528,762.976648 439.965528,762.634648 439.551528,762.285648 C439.001528,761.823648 438.451528,761.354648 437.900528,760.886648 C437.510528,760.554648 437.121528,760.225648 436.730528,759.890648 C441.938528,754.917648 447.315528,749.828648 452.571528,744.571648 C453.144528,743.999648 453.708528,743.425648 454.275528,742.852648 C454.350528,742.898648 454.421528,742.947648 454.497528,742.991648 C456.770528,744.305648 459.364528,745.000648 462.000528,745.000648 C470.272528,745.000648 477.000528,738.271648 477.000528,730.000648 C477.000528,726.713648 475.925528,723.679648 474.125528,721.205648 C484.975528,708.393648 493.812528,696.100648 499.976528,685.252648 C514.560528,710.742648 513.671528,742.330648 497.310528,767.077648 C494.415528,771.456648 491.051528,775.571648 487.312528,779.311648 Z M506.246528,649.753648 C501.098528,644.606648 491.223528,645.626648 476.908528,652.746648 C465.012528,645.231648 451.500528,640.860648 437.445528,639.962648 C435.392528,631.395648 427.688528,625.000648 418.500528,625.000648 C407.748528,625.000648 399.000528,633.747648 399.000528,644.500648 C399.000528,645.167648 399.035528,645.827648 399.100528,646.477648 C394.942528,648.241648 390.923528,650.343648 387.106528,652.753648 C372.784528,645.627648 362.902528,644.604648 357.754528,649.753648 C352.610528,654.898648 353.625528,664.762648 360.730528,679.058648 C343.386528,706.584648 343.391528,741.443648 360.747528,768.908648 C353.626528,783.222648 352.606528,793.098648 357.754528,798.246648 C359.911528,800.403648 362.896528,801.480648 366.689528,801.480648 C371.939528,801.480648 378.758528,799.389648 387.054528,795.267648 C400.846528,803.939648 416.420528,808.287648 432.000528,808.287648 C447.580528,808.287648 463.154528,803.939648 476.884528,795.268648 C485.243528,799.389648 492.062528,801.480648 497.312528,801.480648 C501.105528,801.480648 504.090528,800.402648 506.246528,798.246648 C511.394528,793.097648 510.374528,783.222648 503.254528,768.908648 C520.614528,741.435648 520.614528,706.564648 503.254528,679.091648 C510.374528,664.777648 511.394528,654.902648 506.246528,649.753648 Z M474.668328,813.774248 C472.665328,815.332248 471.389328,817.577248 471.075328,820.095248 C470.759328,822.612248 471.444328,825.102248 473.002328,827.105248 C474.560328,829.108248 476.804328,830.384248 479.323328,830.699248 C479.723328,830.749248 480.122328,830.773248 480.520328,830.773248 C482.619328,830.773248 484.649328,830.081248 486.332328,828.771248 C488.335328,827.213248 489.612328,824.969248 489.926328,822.451248 C490.242328,819.933248 489.557328,817.443248 487.998328,815.441248 C486.441328,813.438248 484.197328,812.162248 481.678328,811.847248 C479.161328,811.535248 476.670328,812.216248 474.668328,813.774248 Z M482.649328,824.035248 C481.911328,824.609248 480.993328,824.860248 480.067328,824.745248 C479.139328,824.629248 478.312328,824.159248 477.738328,823.421248 C477.164328,822.684248 476.912328,821.767248 477.028328,820.839248 C477.144328,819.911248 477.614328,819.084248 478.352328,818.511248 C478.972328,818.028248 479.719328,817.773248 480.493328,817.773248 C480.639328,817.773248 480.786328,817.782248 480.934328,817.801248 C481.862328,817.916248 482.689328,818.387248 483.263328,819.124248 C483.836328,819.862248 484.088328,820.779248 483.973328,821.707248 C483.857328,822.634248 483.387328,823.461248 482.649328,824.035248 Z M329.668328,753.002248 C327.665328,754.559248 326.389328,756.804248 326.075328,759.322248 C325.759328,761.839248 326.444328,764.329248 328.002328,766.332248 C329.560328,768.335248 331.804328,769.611248 334.323328,769.926248 C334.723328,769.976248 335.122328,770.001248 335.520328,770.001248 C337.619328,770.001248 339.649328,769.308248 341.332328,767.998248 C343.335328,766.440248 344.612328,764.196248 344.926328,761.678248 C345.242328,759.161248 344.557328,756.671248 342.998328,754.668248 C341.441328,752.665248 339.197328,751.389248 336.678328,751.074248 C334.163328,750.762248 331.670328,751.444248 329.668328,753.002248 Z M337.649328,763.262248 C336.910328,763.836248 335.992328,764.087248 335.067328,763.972248 C334.139328,763.856248 333.312328,763.386248 332.738328,762.648248 C332.164328,761.911248 331.912328,760.994248 332.028328,760.066248 C332.144328,759.139248 332.615328,758.311248 333.352328,757.738248 C333.972328,757.255248 334.719328,757.000248 335.493328,757.000248 C335.639328,757.000248 335.786328,757.009248 335.934328,757.028248 C336.862328,757.143248 337.689328,757.614248 338.263328,758.351248 C338.836328,759.089248 339.088328,760.006248 338.973328,760.934248 C338.857328,761.861248 338.386328,762.688248 337.649328,763.262248 Z M523.678328,624.074248 C521.164328,623.761248 518.671328,624.444248 516.668328,626.002248 C514.665328,627.559248 513.389328,629.804248 513.075328,632.322248 C512.759328,634.839248 513.444328,637.329248 515.002328,639.332248 C516.560328,641.335248 518.804328,642.611248 521.323328,642.926248 C521.723328,642.976248 522.122328,643.001248 522.520328,643.001248 C524.619328,643.001248 526.649328,642.308248 528.332328,640.998248 C530.335328,639.440248 531.612328,637.196248 531.926328,634.678248 C532.242328,632.161248 531.557328,629.671248 529.998328,627.668248 C528.441328,625.665248 526.197328,624.389248 523.678328,624.074248 Z M524.649328,636.262248 C523.910328,636.836248 522.994328,637.088248 522.067328,636.972248 C521.139328,636.856248 520.312328,636.386248 519.738328,635.648248 C519.164328,634.911248 518.912328,633.994248 519.028328,633.066248 C519.144328,632.139248 519.615328,631.311248 520.352328,630.738248 C520.972328,630.255248 521.719328,630.000248 522.493328,630.000248 C522.639328,630.000248 522.786328,630.009248 522.934328,630.028248 C523.862328,630.143248 524.689328,630.614248 525.263328,631.351248 C525.836328,632.089248 526.088328,633.006248 525.973328,633.934248 C525.857328,634.861248 525.386328,635.688248 524.649328,636.262248 Z" id="08"/>
            </g>
        </g>
    </g>

</symbol>
<symbol id="icon-6" viewBox="0 0 196 206">
    <!-- Generator: Sketch 40.3 (33839) - http://www.bohemiancoding.com/sketch -->
    <title>06</title>
    <desc>Created with Sketch.</desc>
    <defs/>
    <g id="Page-1" stroke="none" stroke-width="1" fill="none" fill-rule="evenodd">
        <g id="Artboard" transform="translate(-778.000000, -760.000000)" fill="#000000">
            <g id="celestial-bodies" transform="translate(123.000000, 136.000000)">
                <path d="M760.8422,811.3642 C733.0922,811.3642 707.7522,797.8892 692.2472,775.1062 C692.2702,775.0982 692.2922,775.0882 692.3152,775.0802 C692.4772,775.0272 692.6322,774.9592 692.7932,774.9032 C693.3162,774.7182 693.8342,774.5252 694.3412,774.3082 C694.5832,774.2042 694.8162,774.0872 695.0542,773.9762 C695.4682,773.7832 695.8802,773.5862 696.2812,773.3722 C696.5352,773.2362 696.7822,773.0922 697.0302,772.9482 C697.4022,772.7332 697.7702,772.5122 698.1302,772.2782 C698.3772,772.1192 698.6192,771.9552 698.8602,771.7872 C699.2092,771.5432 699.5492,771.2912 699.8852,771.0312 C700.1142,770.8542 700.3422,770.6772 700.5642,770.4922 C700.9012,770.2122 701.2262,769.9202 701.5492,769.6242 C701.7492,769.4402 701.9522,769.2602 702.1472,769.0702 C702.4962,768.7282 702.8282,768.3702 703.1572,768.0082 C703.3042,767.8462 703.4592,767.6922 703.6022,767.5272 C704.0632,766.9952 704.5042,766.4452 704.9192,765.8772 C704.9932,765.7762 705.0572,765.6682 705.1302,765.5662 C705.4662,765.0912 705.7922,764.6082 706.0962,764.1112 C706.2272,763.8962 706.3442,763.6732 706.4692,763.4552 C706.6972,763.0562 706.9212,762.6562 707.1282,762.2452 C707.2552,761.9932 707.3702,761.7362 707.4882,761.4792 C707.6702,761.0862 707.8452,760.6912 708.0072,760.2882 C708.1162,760.0162 708.2182,759.7422 708.3182,759.4662 C708.4642,759.0612 708.5992,758.6532 708.7252,758.2402 C708.8112,757.9592 708.8952,757.6792 708.9712,757.3952 C709.0852,756.9672 709.1832,756.5332 709.2762,756.0962 C709.3342,755.8202 709.3972,755.5462 709.4462,755.2672 C709.5312,754.7852 709.5932,754.2972 709.6502,753.8082 C709.6782,753.5672 709.7172,753.3302 709.7392,753.0882 C709.8032,752.3532 709.8422,751.6132 709.8422,750.8642 C709.8422,736.8032 698.4032,725.3642 684.3422,725.3642 C683.8282,725.3642 683.3172,725.3822 682.8092,725.4132 C682.6462,725.4222 682.4842,725.4392 682.3222,725.4522 C681.9752,725.4792 681.6282,725.5102 681.2842,725.5512 C681.0972,725.5732 680.9112,725.6012 680.7242,725.6272 C680.4032,725.6732 680.0832,725.7242 679.7642,725.7822 C679.5762,725.8162 679.3882,725.8512 679.2012,725.8902 C678.8762,725.9572 678.5532,726.0322 678.2312,726.1112 C678.1112,726.1412 677.9892,726.1632 677.8702,726.1942 C678.9562,684.1322 711.4902,649.7522 752.7782,645.7532 C752.7652,645.7782 752.7562,645.8052 752.7442,645.8302 C752.6802,645.9662 752.6222,646.1042 752.5652,646.2432 C752.5112,646.3742 752.4602,646.5062 752.4122,646.6402 C752.3672,646.7652 752.3232,646.8892 752.2842,647.0162 C752.2312,647.1832 752.1862,647.3542 752.1422,647.5262 C752.1162,647.6282 752.0872,647.7292 752.0652,647.8322 C752.0042,648.1122 751.9522,648.3962 751.9162,648.6862 C751.6012,651.2032 752.2862,653.6932 753.8432,655.6962 C755.4012,657.6992 757.6462,658.9752 760.1642,659.2902 C760.5322,659.3362 760.8972,659.3552 761.2602,659.3582 C761.2892,659.3592 761.3192,659.3642 761.3492,659.3642 C761.4892,659.3642 761.6272,659.3512 761.7662,659.3452 C761.8972,659.3392 762.0282,659.3382 762.1582,659.3262 C762.3442,659.3102 762.5262,659.2822 762.7082,659.2562 C762.8232,659.2392 762.9402,659.2282 763.0542,659.2072 C763.3162,659.1592 763.5742,659.0982 763.8292,659.0282 C763.9042,659.0082 763.9772,658.9852 764.0502,658.9632 C764.2892,658.8922 764.5262,658.8152 764.7582,658.7252 C764.8602,658.6852 764.9592,658.6372 765.0602,658.5932 C765.2302,658.5212 765.4002,658.4492 765.5652,658.3662 C765.6752,658.3122 765.7802,658.2502 765.8872,658.1912 C766.0382,658.1082 766.1892,658.0262 766.3352,657.9352 C766.4422,657.8692 766.5452,657.7972 766.6492,657.7262 C766.7882,657.6322 766.9272,657.5382 767.0612,657.4362 C767.1632,657.3592 767.2612,657.2782 767.3602,657.1972 C767.4882,657.0922 767.6152,656.9852 767.7382,656.8732 C767.8332,656.7862 767.9252,656.6972 768.0172,656.6062 C768.1352,656.4902 768.2502,656.3702 768.3632,656.2472 C768.4492,656.1522 768.5342,656.0562 768.6162,655.9582 C768.7242,655.8292 768.8272,655.6982 768.9282,655.5642 C769.0062,655.4622 769.0822,655.3592 769.1552,655.2542 C769.2522,655.1142 769.3432,654.9702 769.4322,654.8252 C769.4982,654.7172 769.5652,654.6102 769.6282,654.4992 C769.7132,654.3472 769.7912,654.1912 769.8682,654.0332 C769.9232,653.9212 769.9802,653.8112 770.0302,653.6962 C770.1042,653.5282 770.1692,653.3562 770.2332,653.1832 C770.2752,653.0722 770.3202,652.9642 770.3582,652.8512 C770.4222,652.6562 770.4742,652.4562 770.5262,652.2562 C770.5522,652.1582 770.5832,652.0632 770.6052,651.9642 C770.6732,651.6632 770.7292,651.3562 770.7682,651.0422 C770.8202,650.6322 770.8352,650.2232 770.8332,649.8172 C770.8332,649.7192 770.8302,649.6232 770.8272,649.5272 C770.8142,649.1462 770.7832,648.7692 770.7252,648.3962 C770.7232,648.3782 770.7222,648.3592 770.7192,648.3412 C770.6522,647.9292 770.5552,647.5232 770.4342,647.1242 C770.4212,647.0822 770.4062,647.0412 770.3932,646.9992 C770.2782,646.6362 770.1412,646.2812 769.9822,645.9332 C769.9732,645.9122 769.9672,645.8882 769.9572,645.8672 C807.4742,650.0272 837.9972,679.5372 843.0722,717.2202 L843.0722,717.2202 C842.8472,717.1512 842.6172,717.0992 842.3902,717.0382 C842.1512,716.9742 841.9152,716.9022 841.6742,716.8472 C841.6652,716.8462 841.6572,716.8452 841.6482,716.8432 C840.7172,716.6322 839.7672,716.4902 838.8062,716.4182 C838.3202,716.3822 837.8322,716.3642 837.3422,716.3642 C826.5902,716.3642 817.8422,725.1122 817.8422,735.8642 C817.8422,746.6162 826.5902,755.3642 837.3422,755.3642 C838.0132,755.3642 838.6792,755.3292 839.3402,755.2622 C839.3482,755.2612 839.3572,755.2612 839.3652,755.2602 C827.9792,788.5432 796.4072,811.3642 760.8422,811.3642 L760.8422,811.3642 Z M679.3842,732.0062 C679.4902,731.9792 679.5962,731.9532 679.7032,731.9272 C680.1292,731.8232 680.5592,731.7302 680.9922,731.6552 C681.0382,731.6472 681.0842,731.6362 681.1302,731.6282 C681.5982,731.5512 682.0712,731.4952 682.5472,731.4512 C682.6602,731.4412 682.7742,731.4322 682.8882,731.4242 C683.3702,731.3882 683.8542,731.3642 684.3422,731.3642 C695.0942,731.3642 703.8422,740.1122 703.8422,750.8642 C703.8422,751.4512 703.8132,752.0322 703.7612,752.6072 C703.7442,752.7982 703.7102,752.9852 703.6872,753.1742 C703.6412,753.5562 703.5962,753.9372 703.5282,754.3122 C703.4882,754.5352 703.4322,754.7512 703.3842,754.9712 C703.3112,755.3072 703.2402,755.6422 703.1492,755.9712 C703.0872,756.2012 703.0102,756.4262 702.9392,756.6532 C702.8412,756.9642 702.7442,757.2752 702.6312,757.5792 C702.5472,757.8072 702.4522,758.0292 702.3602,758.2532 C702.2382,758.5472 702.1152,758.8402 701.9792,759.1272 C701.8752,759.3482 701.7622,759.5652 701.6502,759.7832 C701.5062,760.0612 701.3582,760.3372 701.2012,760.6072 C701.0782,760.8192 700.9492,761.0282 700.8182,761.2352 C700.6522,761.4982 700.4802,761.7582 700.3022,762.0122 C700.1612,762.2132 700.0172,762.4122 699.8692,762.6072 C699.6812,762.8552 699.4862,763.0982 699.2872,763.3372 C699.1312,763.5242 698.9732,763.7102 698.8102,763.8912 C698.6002,764.1242 698.3832,764.3492 698.1622,764.5722 C697.9922,764.7442 697.8232,764.9162 697.6472,765.0812 C697.4152,765.2992 697.1742,765.5062 696.9322,765.7132 C696.7512,765.8662 696.5732,766.0222 696.3872,766.1692 C696.1312,766.3722 695.8642,766.5622 695.5972,766.7522 C695.4102,766.8852 695.2272,767.0232 695.0362,767.1492 C694.7472,767.3402 694.4472,767.5152 694.1472,767.6902 C693.9652,767.7972 693.7872,767.9122 693.6002,768.0132 C693.2532,768.2022 692.8932,768.3712 692.5322,768.5392 C692.3822,768.6092 692.2382,768.6882 692.0862,768.7552 C691.5692,768.9802 691.0402,769.1842 690.4992,769.3642 C690.4202,769.3912 690.3372,769.4082 690.2582,769.4342 C689.8212,769.5732 689.3792,769.7002 688.9292,769.8092 C688.8732,769.7122 688.8142,769.6162 688.7592,769.5192 C688.5772,769.2012 688.4012,768.8792 688.2242,768.5592 C687.9822,768.1232 687.7422,767.6872 687.5092,767.2462 C687.3312,766.9122 687.1592,766.5752 686.9862,766.2382 C686.7642,765.8042 686.5442,765.3702 686.3302,764.9332 C686.1622,764.5892 685.9962,764.2452 685.8332,763.8992 C685.6252,763.4602 685.4222,763.0202 685.2232,762.5782 C685.0662,762.2302 684.9102,761.8822 684.7582,761.5322 C684.5632,761.0842 684.3742,760.6342 684.1872,760.1822 C684.0432,759.8352 683.8992,759.4882 683.7602,759.1382 C683.5742,758.6722 683.3962,758.2022 683.2192,757.7322 C683.0922,757.3942 682.9612,757.0572 682.8382,756.7182 C682.6532,756.2062 682.4782,755.6902 682.3032,755.1742 C682.2012,754.8742 682.0932,754.5752 681.9952,754.2742 C681.7572,753.5482 681.5312,752.8172 681.3142,752.0852 C681.2692,751.9342 681.2242,751.7842 681.1802,751.6332 C680.9582,750.8692 680.7462,750.1032 680.5462,749.3322 C680.4672,749.0272 680.3962,748.7202 680.3212,748.4132 C680.1892,747.8812 680.0572,747.3502 679.9362,746.8152 C679.8562,746.4642 679.7842,746.1112 679.7092,745.7592 C679.6042,745.2642 679.4992,744.7702 679.4032,744.2742 C679.3312,743.9052 679.2662,743.5352 679.1992,743.1662 C679.1122,742.6812 679.0262,742.1962 678.9482,741.7102 C678.8872,741.3342 678.8302,740.9582 678.7752,740.5812 C678.7032,740.0962 678.6352,739.6112 678.5722,739.1242 C678.5232,738.7462 678.4762,738.3682 678.4322,737.9892 C678.3752,737.5002 678.3242,737.0102 678.2762,736.5192 C678.2392,736.1432 678.2022,735.7662 678.1702,735.3882 C678.1282,734.8872 678.0942,734.3862 678.0612,733.8842 C678.0362,733.5172 678.0102,733.1502 677.9912,732.7822 C677.9852,732.6662 677.9822,732.5502 677.9772,732.4342 C677.9932,732.4282 678.0092,732.4212 678.0252,732.4162 C678.4742,732.2622 678.9272,732.1272 679.3842,732.0062 L679.3842,732.0062 Z M764.8142,650.2982 C764.6052,651.9742 763.2362,653.2312 761.6162,653.3542 C761.3842,653.3722 761.1472,653.3672 760.9082,653.3362 C760.6702,653.3062 760.4412,653.2532 760.2222,653.1792 C760.1892,653.1682 760.1612,653.1492 760.1292,653.1382 C759.9432,653.0692 759.7612,652.9922 759.5922,652.8942 C759.5872,652.8912 759.5822,652.8862 759.5762,652.8832 C758.8062,652.4302 758.2342,651.6962 757.9842,650.8392 C757.9812,650.8302 757.9762,650.8222 757.9742,650.8132 C757.9222,650.6292 757.8932,650.4362 757.8722,650.2422 C757.8682,650.2052 757.8562,650.1702 757.8532,650.1332 C757.8352,649.9032 757.8402,649.6682 757.8702,649.4302 C757.9862,648.5022 758.4562,647.6762 759.1942,647.1022 C759.8142,646.6192 760.5612,646.3642 761.3352,646.3642 C761.4812,646.3642 761.6292,646.3732 761.7762,646.3922 C762.7042,646.5082 763.5302,646.9782 764.1042,647.7162 C764.6782,648.4532 764.9302,649.3702 764.8142,650.2982 L764.8142,650.2982 Z M843.7972,731.0382 C843.7882,731.3332 843.7692,731.6272 843.7562,731.9222 C843.7302,732.5192 843.7052,733.1162 843.6662,733.7122 C843.6432,734.0622 843.6112,734.4102 843.5842,734.7602 C843.5422,735.3002 843.5012,735.8412 843.4492,736.3802 C843.4122,736.7522 843.3682,737.1242 843.3272,737.4952 C843.2702,738.0112 843.2122,738.5272 843.1452,739.0412 C843.0952,739.4252 843.0392,739.8082 842.9832,740.1912 C842.9112,740.6922 842.8382,741.1932 842.7562,741.6922 C842.6932,742.0822 842.6242,742.4712 842.5552,742.8602 C842.4682,743.3512 842.3782,743.8422 842.2822,744.3322 C842.2052,744.7262 842.1232,745.1202 842.0402,745.5132 C841.9392,745.9942 841.8332,746.4742 841.7232,746.9532 C841.6322,747.3512 841.5382,747.7482 841.4412,748.1452 C841.3892,748.3562 841.3332,748.5662 841.2802,748.7772 C840.9092,748.8902 840.5342,748.9852 840.1562,749.0662 C840.0452,749.0892 839.9332,749.1072 839.8222,749.1282 C839.5232,749.1842 839.2212,749.2292 838.9172,749.2642 C838.8002,749.2782 838.6832,749.2932 838.5652,749.3032 C838.1602,749.3402 837.7532,749.3642 837.3422,749.3642 C829.8982,749.3642 823.8422,743.3082 823.8422,735.8642 C823.8422,728.4202 829.8982,722.3642 837.3422,722.3642 C837.8452,722.3642 838.3432,722.4012 838.8382,722.4552 C838.9332,722.4662 839.0282,722.4752 839.1222,722.4872 C839.5982,722.5502 840.0692,722.6372 840.5332,722.7502 C840.6192,722.7702 840.7042,722.7952 840.7902,722.8182 C841.2492,722.9392 841.7032,723.0792 842.1472,723.2482 C842.1712,723.2572 842.1952,723.2642 842.2192,723.2732 C842.6752,723.4502 843.1192,723.6602 843.5552,723.8872 C843.6052,723.9132 843.6552,723.9392 843.7052,723.9662 C843.7062,723.9802 843.7072,723.9962 843.7082,724.0102 C843.7122,724.0912 843.7152,724.1672 843.7202,724.2472 C843.7412,724.6432 843.7602,725.0282 843.7762,725.4032 C843.7822,725.5402 843.7862,725.6742 843.7912,725.8082 C843.8032,726.1332 843.8132,726.4502 843.8202,726.7622 C843.8232,726.8852 843.8272,727.0092 843.8292,727.1312 C843.8372,727.5492 843.8422,727.9602 843.8422,728.3642 C843.8422,729.2562 843.8262,730.1472 843.7972,731.0382 L843.7972,731.0382 Z M849.8422,721.9932 L849.8422,721.9922 L849.6142,720.5412 L849.5132,720.5152 C845.5122,674.8932 806.8592,639.3642 760.8732,639.3642 C711.7992,639.3642 671.8582,679.2892 671.8582,728.3642 C671.8582,728.8512 671.8652,729.3342 671.8822,729.8172 L672.0092,735.0912 L672.1322,735.0332 C673.0672,747.5822 676.6412,759.7832 682.6032,770.7792 L682.4632,770.7992 L684.8562,774.7142 L685.8782,776.3872 L685.9122,776.3832 C702.3872,802.0792 730.2452,817.3642 760.8422,817.3642 C800.3642,817.3642 835.2702,791.0752 846.2702,753.2602 L846.3062,753.2452 L846.6892,751.8432 L848.3202,745.8672 L848.0802,745.9702 C849.2492,740.1702 849.8422,734.2712 849.8422,728.3642 C849.8422,728.2552 849.8392,728.1422 849.8392,728.0322 L850.1532,728.1602 L849.8422,721.9932 Z M797.8422,695.3642 C792.8802,695.3642 788.8422,691.3262 788.8422,686.3642 C788.8422,681.4022 792.8802,677.3642 797.8422,677.3642 C802.8042,677.3642 806.8422,681.4022 806.8422,686.3642 C806.8422,691.3262 802.8042,695.3642 797.8422,695.3642 Z M797.8422,671.3642 C789.5712,671.3642 782.8422,678.0932 782.8422,686.3642 C782.8422,694.6352 789.5712,701.3642 797.8422,701.3642 C806.1132,701.3642 812.8422,694.6352 812.8422,686.3642 C812.8422,678.0932 806.1132,671.3642 797.8422,671.3642 Z M718.8422,707.3642 C713.8802,707.3642 709.8422,703.3262 709.8422,698.3642 C709.8422,693.4022 713.8802,689.3642 718.8422,689.3642 C723.8042,689.3642 727.8422,693.4022 727.8422,698.3642 C727.8422,703.3262 723.8042,707.3642 718.8422,707.3642 Z M733.8422,698.3642 C733.8422,690.0932 727.1132,683.3642 718.8422,683.3642 C710.5712,683.3642 703.8422,690.0932 703.8422,698.3642 C703.8422,706.6352 710.5712,713.3642 718.8422,713.3642 C727.1132,713.3642 733.8422,706.6352 733.8422,698.3642 Z M790.8422,785.3642 C785.8802,785.3642 781.8422,781.3262 781.8422,776.3642 C781.8422,771.4022 785.8802,767.3642 790.8422,767.3642 C795.8042,767.3642 799.8422,771.4022 799.8422,776.3642 C799.8422,781.3262 795.8042,785.3642 790.8422,785.3642 Z M790.8422,761.3642 C782.5712,761.3642 775.8422,768.0932 775.8422,776.3642 C775.8422,784.6352 782.5712,791.3642 790.8422,791.3642 C799.1132,791.3642 805.8422,784.6352 805.8422,776.3642 C805.8422,768.0932 799.1132,761.3642 790.8422,761.3642 Z M737.6164,785.3535 C737.3844,785.3715 737.1474,785.3665 736.9084,785.3365 C735.9804,785.2205 735.1534,784.7505 734.5804,784.0125 C734.0054,783.2745 733.7534,782.3575 733.8704,781.4305 C733.9854,780.5025 734.4564,779.6755 735.1934,779.1015 C735.8144,778.6195 736.5614,778.3645 737.3354,778.3645 C737.4814,778.3645 737.6284,778.3735 737.7764,778.3925 C738.0144,778.4215 738.2434,778.4755 738.4624,778.5495 C738.4954,778.5605 738.5234,778.5785 738.5554,778.5905 C738.7414,778.6595 738.9234,778.7365 739.0914,778.8335 C739.0974,778.8375 739.1024,778.8425 739.1084,778.8455 C739.8784,779.2975 740.4504,780.0315 740.7004,780.8895 C740.7034,780.8975 740.7074,780.9055 740.7104,780.9145 C740.7624,781.0995 740.7914,781.2925 740.8124,781.4865 C740.8164,781.5225 740.8284,781.5575 740.8314,781.5945 C740.8484,781.8255 740.8444,782.0605 740.8144,782.2985 C740.6054,783.9735 739.2384,785.2275 737.6164,785.3535 Z M738.5204,772.4375 C738.2054,772.3995 737.8914,772.3755 737.5784,772.3675 C737.3604,772.3625 737.1464,772.3735 736.9314,772.3825 C736.8324,772.3865 736.7324,772.3835 736.6344,772.3905 C736.4594,772.4035 736.2884,772.4315 736.1154,772.4535 C735.9764,772.4715 735.8354,772.4835 735.6974,772.5075 C735.5724,772.5295 735.4514,772.5625 735.3274,772.5895 C735.1444,772.6295 734.9604,772.6655 734.7794,772.7155 C734.7054,772.7365 734.6334,772.7655 734.5604,772.7875 C734.3354,772.8565 734.1124,772.9275 733.8934,773.0125 C733.8664,773.0225 733.8414,773.0365 733.8144,773.0475 C732.9994,773.3745 732.2224,773.8115 731.5104,774.3655 C730.0374,775.5115 728.9614,777.0295 728.3684,778.7535 C728.3604,778.7755 728.3504,778.7955 728.3434,778.8175 C728.2604,779.0645 728.1924,779.3185 728.1294,779.5745 C728.1154,779.6295 728.0964,779.6825 728.0834,779.7385 C728.0124,780.0495 727.9564,780.3655 727.9164,780.6855 C727.6014,783.2035 728.2864,785.6935 729.8434,787.6965 C731.4014,789.6995 733.6464,790.9755 736.1644,791.2905 C736.5624,791.3405 736.9574,791.3645 737.3494,791.3645 C742.0654,791.3645 746.1684,787.8415 746.7684,783.0425 C747.0834,780.5245 746.3984,778.0355 744.8404,776.0325 C743.2834,774.0295 741.0384,772.7525 738.5204,772.4375 Z M765.3422,749.3642 C756.2442,749.3642 748.8422,741.9622 748.8422,732.8642 C748.8422,723.7662 756.2442,716.3642 765.3422,716.3642 C774.4402,716.3642 781.8422,723.7662 781.8422,732.8642 C781.8422,741.9622 774.4402,749.3642 765.3422,749.3642 Z M787.8422,732.8642 C787.8422,720.4572 777.7492,710.3642 765.3422,710.3642 C752.9352,710.3642 742.8422,720.4572 742.8422,732.8642 C742.8422,745.2712 752.9352,755.3642 765.3422,755.3642 C777.7492,755.3642 787.8422,745.2712 787.8422,732.8642 Z M670.842,633.5622 L655,653.3642 L670.842,673.1662 L686.684,653.3642 L670.842,633.5622 Z M662.684,653.3642 L670.842,643.1662 L679,653.3642 L670.842,663.5622 L662.684,653.3642 Z M708.7206,636.728 L710.1516,635.297 C710.3796,635.328 710.6076,635.364 710.8426,635.364 C711.0766,635.364 711.3046,635.328 711.5326,635.297 L712.9636,636.728 L717.2056,632.486 L715.7746,631.055 C715.8066,630.826 715.8426,630.599 715.8426,630.364 C715.8426,630.13 715.8066,629.902 715.7746,629.674 L717.2056,628.243 L712.9636,624 L711.5326,625.432 C711.3046,625.4 711.0766,625.364 710.8426,625.364 C710.6076,625.364 710.3796,625.4 710.1516,625.432 L708.7206,624 L704.4786,628.243 L705.9096,629.674 C705.8776,629.902 705.8426,630.13 705.8426,630.364 C705.8426,630.599 705.8776,630.826 705.9096,631.055 L704.4786,632.486 L708.7206,636.728 Z M700.9638,817.0005 L699.5328,818.4315 C699.3048,818.4005 699.0768,818.3645 698.8418,818.3645 C698.6078,818.3645 698.3798,818.4005 698.1518,818.4315 L696.7208,817.0005 L692.4788,821.2425 L693.9098,822.6735 C693.8778,822.9025 693.8418,823.1295 693.8418,823.3645 C693.8418,823.5985 693.8778,823.8265 693.9098,824.0545 L692.4788,825.4855 L696.7208,829.7285 L698.1518,828.2965 C698.3798,828.3285 698.6078,828.3645 698.8418,828.3645 C699.0768,828.3645 699.3048,828.3285 699.5328,828.2965 L700.9638,829.7285 L705.2058,825.4855 L703.7748,824.0545 C703.8068,823.8265 703.8418,823.5985 703.8418,823.3645 C703.8418,823.1295 703.8068,822.9025 703.7748,822.6735 L705.2058,821.2425 L700.9638,817.0005 Z M849.2628,641.3642 C848.8888,640.8092 848.4028,640.3372 847.8418,639.9702 L847.8418,638.3642 L841.8418,638.3642 L841.8418,640.4012 C841.5138,640.6882 841.2098,641.0012 840.9658,641.3642 L838.8418,641.3642 L838.8418,647.3642 L841.3158,647.3642 C841.4788,647.5562 841.6528,647.7352 841.8418,647.9012 L841.8418,650.3642 L847.8418,650.3642 L847.8418,648.3312 C848.2478,648.0652 848.5998,647.7332 848.9128,647.3642 L850.8418,647.3642 L850.8418,641.3642 L849.2628,641.3642 Z" id="09"/>
            </g>
        </g>
    </g>

</symbol>
<symbol id="icon-7" viewBox="0 0 209 201">
    <!-- Generator: Sketch 40.3 (33839) - http://www.bohemiancoding.com/sketch -->
    <title>07</title>
    <desc>Created with Sketch.</desc>
    <defs/>
    <g id="Page-1" stroke="none" stroke-width="1" fill="none" fill-rule="evenodd">
        <g id="Artboard" transform="translate(-124.000000, -1075.000000)" fill="#000000">
            <g id="celestial-bodies" transform="translate(123.000000, 136.000000)">
                <path d="M195.950323,999.1934 C193.950323,999.2124 192.049323,998.4514 190.615323,997.0484 C189.181323,995.6444 188.381323,993.7664 188.360323,991.7594 C188.317323,987.6174 191.652323,984.2124 195.794323,984.1694 C197.845323,984.1504 199.695323,984.9114 201.129323,986.3144 C202.562323,987.7184 203.363323,989.5964 203.384323,991.6034 C203.427323,995.7454 200.092323,999.1504 195.950323,999.1934 L195.950323,999.1934 Z M114.711323,1028.6284 C113.307323,1030.0614 111.429323,1030.8624 109.423323,1030.8824 C107.407323,1030.8974 105.521323,1030.1414 104.088323,1028.7374 C102.655323,1027.3344 101.853323,1025.4554 101.833323,1023.4484 C101.812323,1021.4424 102.574323,1019.5474 103.978323,1018.1144 C105.382323,1016.6804 107.260323,1015.8804 109.267323,1015.8594 C111.298323,1015.8384 113.168323,1016.6004 114.601323,1018.0044 C116.035323,1019.4084 116.836323,1021.2864 116.856323,1023.2934 C116.877323,1025.2994 116.116323,1027.1944 114.711323,1028.6284 L114.711323,1028.6284 Z M53.9433225,1087.8184 L19.0293225,1061.2404 L98.1443225,1030.9334 C98.6503225,1031.6784 99.2313225,1032.3804 99.8893225,1033.0244 C101.679323,1034.7774 103.873323,1035.9594 106.251323,1036.5144 L102.557323,1069.8854 L53.9433225,1087.8184 Z M205.327323,982.0274 C202.748323,979.5034 199.347323,978.1244 195.732323,978.1694 C191.869323,978.2094 188.406323,979.8844 185.968323,982.5174 L164.986323,969.9404 L127.597323,981.5024 L113.471323,1010.5024 C112.118323,1010.0714 110.688323,1009.8434 109.204323,1009.8594 C105.596323,1009.8974 102.217323,1011.3374 99.6913225,1013.9164 C97.1663225,1016.4944 95.7963225,1019.9014 95.8333225,1023.5114 C95.8393225,1024.1284 95.9013225,1024.7344 95.9883225,1025.3344 L6.82532253,1059.4904 L52.9303225,1094.5884 L108.113323,1074.2314 L112.283323,1036.5584 C114.817323,1035.9984 117.139323,1034.7234 118.998323,1032.8264 C121.524323,1030.2474 122.894323,1026.8394 122.856323,1023.2304 C122.819323,1019.6214 121.378323,1016.2434 118.800323,1013.7174 C118.750323,1013.6694 118.696323,1013.6284 118.646323,1013.5804 L131.853323,986.4654 L164.199323,976.4644 L182.960323,987.7094 C182.559323,989.0094 182.345323,990.3904 182.360323,991.8214 C182.398323,995.4304 183.838323,998.7124 186.417323,1001.2374 C188.961323,1003.7294 192.313323,1004.9994 195.869323,1004.9994 L196.012323,1004.9994 C203.463323,1004.9994 209.461323,998.8944 209.384323,991.4444 C209.346323,987.8354 207.906323,984.5534 205.327323,982.0274 Z M52.1227225,1122.3932 L50.6917225,1123.8242 C50.4637225,1123.7932 50.2357225,1123.7572 50.0007225,1123.7572 C49.7667225,1123.7572 49.5387225,1123.7932 49.3107225,1123.8242 L47.8797225,1122.3932 L43.6377225,1126.6352 L45.0687225,1128.0662 C45.0367225,1128.2952 45.0007225,1128.5222 45.0007225,1128.7572 C45.0007225,1128.9912 45.0367225,1129.2192 45.0687225,1129.4472 L43.6377225,1130.8782 L47.8797225,1135.1212 L49.3107225,1133.6892 C49.5387225,1133.7212 49.7667225,1133.7572 50.0007225,1133.7572 C50.2357225,1133.7572 50.4637225,1133.7212 50.6917225,1133.6892 L52.1227225,1135.1212 L56.3647225,1130.8782 L54.9337225,1129.4472 C54.9657225,1129.2192 55.0007225,1128.9912 55.0007225,1128.7572 C55.0007225,1128.5222 54.9657225,1128.2952 54.9337225,1128.0662 L56.3647225,1126.6352 L52.1227225,1122.3932 Z M68.1227225,994.3932 L66.6917225,995.8242 C66.4637225,995.7932 66.2357225,995.7572 66.0007225,995.7572 C65.7667225,995.7572 65.5387225,995.7932 65.3107225,995.8242 L63.8797225,994.3932 L59.6377225,998.6352 L61.0687225,1000.0662 C61.0367225,1000.2952 61.0007225,1000.5222 61.0007225,1000.7572 C61.0007225,1000.9912 61.0367225,1001.2192 61.0687225,1001.4472 L59.6377225,1002.8782 L63.8797225,1007.1212 L65.3107225,1005.6892 C65.5387225,1005.7212 65.7667225,1005.7572 66.0007225,1005.7572 C66.2357225,1005.7572 66.4637225,1005.7212 66.6917225,1005.6892 L68.1227225,1007.1212 L72.3647225,1002.8782 L70.9337225,1001.4472 C70.9657225,1001.2192 71.0007225,1000.9912 71.0007225,1000.7572 C71.0007225,1000.5222 70.9657225,1000.2952 70.9337225,1000.0662 L72.3647225,998.6352 L68.1227225,994.3932 Z M161.122723,1057.3932 L159.691723,1058.8242 C159.463723,1058.7932 159.235723,1058.7572 159.000723,1058.7572 C158.766723,1058.7572 158.538723,1058.7932 158.310723,1058.8242 L156.879723,1057.3932 L152.637723,1061.6352 L154.068723,1063.0662 C154.036723,1063.2952 154.000723,1063.5222 154.000723,1063.7572 C154.000723,1063.9912 154.036723,1064.2192 154.068723,1064.4472 L152.637723,1065.8782 L156.879723,1070.1212 L158.310723,1068.6892 C158.538723,1068.7212 158.766723,1068.7572 159.000723,1068.7572 C159.235723,1068.7572 159.463723,1068.7212 159.691723,1068.6892 L161.122723,1070.1212 L165.364723,1065.8782 L163.933723,1064.4472 C163.965723,1064.2192 164.000723,1063.9912 164.000723,1063.7572 C164.000723,1063.5222 163.965723,1063.2952 163.933723,1063.0662 L165.364723,1061.6352 L161.122723,1057.3932 Z M24.0011225,1106.9996 C22.3441225,1106.9996 21.0011225,1108.3426 21.0011225,1109.9996 C21.0011225,1111.6566 22.3441225,1112.9996 24.0011225,1112.9996 C25.6581225,1112.9996 27.0011225,1111.6566 27.0011225,1109.9996 C27.0011225,1108.3426 25.6581225,1106.9996 24.0011225,1106.9996 Z M10.5199225,1002.001 C12.6199225,1002.001 14.6489225,1001.308 16.3329225,999.998 C18.3359225,998.44 19.6129225,996.195 19.9269225,993.678 C20.2419225,991.16 19.5569225,988.67 17.9989225,986.668 C16.4419225,984.665 14.1969225,983.388 11.6789225,983.073 C9.15992253,982.76 6.67192253,983.443 4.66892253,985.002 C2.66592253,986.559 1.38992253,988.804 1.07492253,991.321 C0.759922533,993.839 1.44492253,996.329 3.00292253,998.332 C4.56092253,1000.335 6.80492253,1001.611 9.32292253,1001.926 C9.72292253,1001.976 10.1229225,1002.001 10.5199225,1002.001 Z M7.73892253,994.648 C7.16492253,993.91 6.91292253,992.993 7.02892253,992.065 C7.14492253,991.138 7.61492253,990.311 8.35292253,989.737 C8.97292253,989.255 9.71992253,989 10.4939225,989 C10.6399225,989 10.7879225,989.009 10.9349225,989.027 C11.8629225,989.143 12.6899225,989.613 13.2629225,990.351 C13.8369225,991.089 14.0899225,992.006 13.9729225,992.934 C13.8579225,993.861 13.3869225,994.688 12.6499225,995.262 C11.9119225,995.835 10.9949225,996.089 10.0669225,995.972 C9.13992253,995.856 8.31292253,995.386 7.73892253,994.648 Z M61.0011225,948.974 L61.0011225,951 L67.0011225,951 L67.0011225,948.974 C67.3701225,948.695 67.6961225,948.368 67.9751225,948 L70.0011225,948 L70.0011225,942 L67.9751225,942 C67.6961225,941.631 67.3701225,941.304 67.0011225,941.025 L67.0011225,939 L61.0011225,939 L61.0011225,941.025 C60.6321225,941.304 60.3061225,941.631 60.0271225,942 L58.0011225,942 L58.0011225,948 L60.0271225,948 C60.3061225,948.368 60.6321225,948.695 61.0011225,948.974 Z M185.501123,1100.9996 C174.749123,1100.9996 166.001123,1109.7476 166.001123,1120.4996 C166.001123,1131.2516 174.749123,1139.9996 185.501123,1139.9996 C196.253123,1139.9996 205.001123,1131.2516 205.001123,1120.4996 C205.001123,1109.7476 196.253123,1100.9996 185.501123,1100.9996 Z M185.501123,1133.9996 C178.057123,1133.9996 172.001123,1127.9436 172.001123,1120.4996 C172.001123,1113.0556 178.057123,1106.9996 185.501123,1106.9996 C192.945123,1106.9996 199.001123,1113.0556 199.001123,1120.4996 C199.001123,1127.9436 192.945123,1133.9996 185.501123,1133.9996 Z M184.001123,952.9996 C185.658123,952.9996 187.001123,951.6566 187.001123,949.9996 C187.001123,948.3426 185.658123,946.9996 184.001123,946.9996 C182.344123,946.9996 181.001123,948.3426 181.001123,949.9996 C181.001123,951.6566 182.344123,952.9996 184.001123,952.9996 Z" id="10"/>
            </g>
        </g>
    </g>

</symbol>
<symbol id="icon-8" viewBox="0 0 211 210">
    <!-- Generator: Sketch 40.3 (33839) - http://www.bohemiancoding.com/sketch -->
    <title>08</title>
    <desc>Created with Sketch.</desc>
    <defs/>
    <g id="Page-1" stroke="none" stroke-width="1" fill="none" fill-rule="evenodd">
        <g id="Artboard" transform="translate(-771.000000, -1071.000000)" fill="#000000">
            <g id="celestial-bodies" transform="translate(123.000000, 136.000000)">
                <path d="M686.2496,1059.9678 C691.8086,1055.1128 703.1306,1052.3138 718.9906,1052.3138 L719.0686,1052.3138 C727.9466,1052.3138 735.9746,1053.3558 739.8056,1053.8218 C740.6316,1067.1158 740.3976,1095.6028 731.9456,1107.2338 C729.9566,1099.5918 723.7546,1093.5488 715.5596,1091.9888 C704.1796,1089.8228 693.1676,1097.3458 691.0036,1108.7198 C690.7276,1110.1688 690.6166,1111.6568 690.6486,1113.1258 C687.8926,1111.4298 685.3426,1109.1958 683.1046,1106.6338 C671.1356,1092.9288 672.5456,1071.9388 686.2496,1059.9678 M697.0726,1116.1778 C696.5716,1114.1098 696.4936,1111.9938 696.8976,1109.8688 C697.6466,1105.9328 699.8836,1102.5248 703.1966,1100.2708 C706.5106,1098.0178 710.5026,1097.1888 714.4376,1097.9378 C721.4616,1099.2748 726.4456,1105.2718 726.6226,1112.2478 C717.7886,1118.3188 706.7646,1119.5478 697.0726,1116.1778 M678.5856,1110.6968 C686.2866,1119.5128 697.1066,1124.0238 707.9836,1124.0238 C717.0896,1124.0238 726.2346,1120.8608 733.6146,1114.4138 C749.5486,1100.4968 745.7796,1053.1448 745.6106,1051.1358 L745.4136,1048.7728 L743.0686,1048.2008 C742.6166,1048.1328 731.8596,1046.3138 719.0686,1046.3138 L719.0636,1046.3138 C701.4436,1046.3138 689.0746,1049.5328 682.3026,1055.4488 C666.1066,1069.5958 664.4396,1094.5008 678.5856,1110.6968 Z M695.2994,1070.4449 C695.9154,1068.5389 697.2364,1066.9869 699.0204,1066.0739 C700.0934,1065.5259 701.2564,1065.2469 702.4274,1065.2469 C703.2024,1065.2469 703.9824,1065.3689 704.7404,1065.6139 C708.6754,1066.8849 710.8424,1071.1199 709.5714,1075.0549 C708.9554,1076.9609 707.6344,1078.5129 705.8514,1079.4259 C704.0684,1080.3379 702.0344,1080.5009 700.1304,1079.8859 C698.2244,1079.2709 696.6724,1077.9489 695.7604,1076.1659 C694.8474,1074.3829 694.6844,1072.3509 695.2994,1070.4449 Z M698.2864,1085.5959 C699.6604,1086.0399 701.0544,1086.2499 702.4264,1086.2499 C708.1254,1086.2499 713.4374,1082.6079 715.2804,1076.8989 C717.5694,1069.8159 713.6674,1062.1929 706.5844,1059.9039 C703.1534,1058.7969 699.4954,1059.0909 696.2864,1060.7329 C693.0764,1062.3759 690.6984,1065.1699 689.5904,1068.6009 C687.3024,1075.6839 691.2034,1083.3079 698.2864,1085.5959 Z M669.816,1122.4971 C659.617,1112.2981 654,1098.7371 654,1084.3131 C654,1069.8901 659.617,1056.3291 669.816,1046.1301 L665.574,1041.8871 C654.241,1053.2191 648,1068.2871 648,1084.3131 C648,1100.3401 654.241,1115.4081 665.574,1126.7401 C677.27,1138.4371 692.635,1144.2851 708,1144.2851 C723.364,1144.2851 738.729,1138.4371 750.425,1126.7401 L746.183,1122.4971 C725.129,1143.5511 690.871,1143.5521 669.816,1122.4971 Z M675.9996,1039.3135 C677.6566,1039.3135 678.9996,1037.9705 678.9996,1036.3135 C678.9996,1034.6565 677.6566,1033.3135 675.9996,1033.3135 C674.3426,1033.3135 672.9996,1034.6565 672.9996,1036.3135 C672.9996,1037.9705 674.3426,1039.3135 675.9996,1039.3135 Z M816.9996,1059.3135 C815.3426,1059.3135 813.9996,1060.6565 813.9996,1062.3135 C813.9996,1063.9705 815.3426,1065.3135 816.9996,1065.3135 C818.6566,1065.3135 819.9996,1063.9705 819.9996,1062.3135 C819.9996,1060.6565 818.6566,1059.3135 816.9996,1059.3135 Z M843.9996,984.3135 C845.6566,984.3135 846.9996,982.9705 846.9996,981.3135 C846.9996,979.6565 845.6566,978.3135 843.9996,978.3135 C842.3426,978.3135 840.9996,979.6565 840.9996,981.3135 C840.9996,982.9705 842.3426,984.3135 843.9996,984.3135 Z M796.9098,939.627 L793.0898,935 L682.1738,1026.576 L685.9938,1031.203 L796.9098,939.627 Z M745.8492,1009.5533 L826.9102,942.6273 L823.0892,938.0003 L742.0292,1004.9263 L745.8492,1009.5533 Z M721.4605,1029.689 L735.7295,1017.909 L731.9085,1013.282 L717.6405,1025.062 L721.4605,1029.689 Z M741.1734,1033.5762 L744.9934,1038.2032 L780.5744,1008.8262 L776.7544,1004.1992 L741.1734,1033.5762 Z M758.8326,1055.0332 L836.5846,990.8392 L832.7646,986.2122 L755.0126,1050.4062 L758.8326,1055.0332 Z M817.9664,1036.21 L858.9024,1002.633 L855.0974,997.994 L814.1614,1031.571 L817.9664,1036.21 Z M767.0777,1078.2256 L806.1737,1045.9466 L802.3527,1041.3196 L763.2577,1073.5986 L767.0777,1078.2256 Z M752.9869,1115.5889 L757.0119,1120.0379 L809.5119,1072.5379 L805.4869,1068.0889 L752.9869,1115.5889 Z M823.6402,1052.0621 L827.4602,1056.6891 L841.7292,1044.9091 L837.9092,1040.2821 L823.6402,1052.0621 Z" id="12"/>
            </g>
        </g>
    </g>

</symbol></svg>